<mxfile host="Electron" agent="Mozilla/5.0 (Macintosh; Intel Mac OS X 10_15_7) AppleWebKit/537.36 (KHTML, like Gecko) draw.io/27.0.9 Chrome/134.0.6998.205 Electron/35.4.0 Safari/537.36" version="27.0.9">
  <diagram name="ページ1" id="Ou39F8mSwai-S5gDQPx5">
    <mxGraphModel dx="976" dy="722" grid="1" gridSize="10" guides="1" tooltips="1" connect="1" arrows="1" fold="1" page="1" pageScale="1" pageWidth="827" pageHeight="1169" math="0" shadow="0">
      <root>
        <mxCell id="0" />
        <mxCell id="1" parent="0" />
        <mxCell id="sZBBcLGEj0EJW_X4VHjf-1" value="" style="whiteSpace=wrap;html=1;aspect=fixed;" vertex="1" parent="1">
          <mxGeometry x="180" y="90" width="500" height="500" as="geometry" />
        </mxCell>
        <mxCell id="sZBBcLGEj0EJW_X4VHjf-9" value="" style="verticalLabelPosition=bottom;verticalAlign=top;html=1;shape=mxgraph.basic.rect;fillColor2=none;strokeWidth=1;size=20;indent=5;strokeColor=#000000;" vertex="1" parent="1">
          <mxGeometry x="230" y="130" width="400" height="200" as="geometry" />
        </mxCell>
        <mxCell id="sZBBcLGEj0EJW_X4VHjf-2" value="Youtube" style="rounded=0;whiteSpace=wrap;html=1;" vertex="1" parent="1">
          <mxGeometry x="280" y="170" width="110" height="30" as="geometry" />
        </mxCell>
        <mxCell id="sZBBcLGEj0EJW_X4VHjf-3" value="TikTok" style="rounded=0;whiteSpace=wrap;html=1;" vertex="1" parent="1">
          <mxGeometry x="280" y="220" width="110" height="30" as="geometry" />
        </mxCell>
        <mxCell id="sZBBcLGEj0EJW_X4VHjf-4" value="Instagram" style="rounded=0;whiteSpace=wrap;html=1;" vertex="1" parent="1">
          <mxGeometry x="424" y="170" width="110" height="30" as="geometry" />
        </mxCell>
        <mxCell id="sZBBcLGEj0EJW_X4VHjf-5" value="X" style="rounded=0;whiteSpace=wrap;html=1;" vertex="1" parent="1">
          <mxGeometry x="424" y="220" width="110" height="30" as="geometry" />
        </mxCell>
        <mxCell id="sZBBcLGEj0EJW_X4VHjf-6" value="テスト" style="rounded=0;whiteSpace=wrap;html=1;" vertex="1" parent="1">
          <mxGeometry x="280" y="270" width="110" height="30" as="geometry" />
        </mxCell>
        <mxCell id="sZBBcLGEj0EJW_X4VHjf-10" value="&lt;u&gt;&lt;b&gt;オンライン&lt;/b&gt;&lt;/u&gt;" style="text;html=1;align=center;verticalAlign=middle;whiteSpace=wrap;rounded=0;" vertex="1" parent="1">
          <mxGeometry x="230" y="130" width="80" height="30" as="geometry" />
        </mxCell>
        <mxCell id="sZBBcLGEj0EJW_X4VHjf-12" value="" style="verticalLabelPosition=bottom;verticalAlign=top;html=1;shape=mxgraph.basic.rect;fillColor2=none;strokeWidth=1;size=20;indent=5;strokeColor=#000000;" vertex="1" parent="1">
          <mxGeometry x="230" y="350" width="400" height="200" as="geometry" />
        </mxCell>
        <mxCell id="sZBBcLGEj0EJW_X4VHjf-13" value="Youtube" style="rounded=0;whiteSpace=wrap;html=1;" vertex="1" parent="1">
          <mxGeometry x="280" y="390" width="110" height="30" as="geometry" />
        </mxCell>
        <mxCell id="sZBBcLGEj0EJW_X4VHjf-14" value="TikTok" style="rounded=0;whiteSpace=wrap;html=1;" vertex="1" parent="1">
          <mxGeometry x="280" y="440" width="110" height="30" as="geometry" />
        </mxCell>
        <mxCell id="sZBBcLGEj0EJW_X4VHjf-15" value="Instagram" style="rounded=0;whiteSpace=wrap;html=1;" vertex="1" parent="1">
          <mxGeometry x="424" y="390" width="110" height="30" as="geometry" />
        </mxCell>
        <mxCell id="sZBBcLGEj0EJW_X4VHjf-16" value="X" style="rounded=0;whiteSpace=wrap;html=1;" vertex="1" parent="1">
          <mxGeometry x="424" y="440" width="110" height="30" as="geometry" />
        </mxCell>
        <mxCell id="sZBBcLGEj0EJW_X4VHjf-17" value="テスト" style="rounded=0;whiteSpace=wrap;html=1;" vertex="1" parent="1">
          <mxGeometry x="280" y="490" width="110" height="30" as="geometry" />
        </mxCell>
        <mxCell id="sZBBcLGEj0EJW_X4VHjf-18" value="&lt;u&gt;&lt;b&gt;バッチ&lt;/b&gt;&lt;/u&gt;" style="text;html=1;align=center;verticalAlign=middle;whiteSpace=wrap;rounded=0;" vertex="1" parent="1">
          <mxGeometry x="230" y="350" width="80" height="30" as="geometry" />
        </mxCell>
      </root>
    </mxGraphModel>
  </diagram>
</mxfile>
